<svg viewBox="0 0 830 512" xmlns="http://www.w3.org/2000/svg" xmlns:xlink="http://www.w3.org/1999/xlink"><symbol id="a" viewBox="0 0 364.62 372.42"><path d="m77.7 163.94c-14.27-7-9.92-30.9-20.45-26.44-6.23.12-11.84-3.02-15.29-8.24-3.06-4.72-3.79-9.91-2.98-15.27-8.05-4.37-12.41-14.18-10.18-23.2.8-10.8-10.3-20.5-2.03-31.52 5-9.23 10.75-18.51 18.85-25.45-3.62-7.31 3.93-15.35 11.47-13.31 14.75 1.55 29 4.84 42.19 12.05 1.56-2.56 3.2-5.13 6.05-6.7 14.82-8.09 27.91 12.23 10.3 19.06 74.77 60.31-63.43 57.77 132.95 57.89 69.71-4.48 59.34 20.37 57.33 76.86 46.88 35.85 42.31 93.4 7.02 136.43-26.03 29.99-52.45-24.04-59.32-3.5-11.81 22.23-46.78 54.31-69.95 29.66-3.97 6.6-9.16 16.41-18.74 19.15-20.62 10.16-43.46-8.61-38.6-30.88-10.25-1.87-19.35-5.74-25.44-14.67-15.01 6.81-32.45 2.31-44.39-8.31-16.21-11.28-49.63-61.25-11.7-61.97 24.22 7.23 36.55-17.84 46.82-34.93 8.13-9.97 15.23-15.65 12.69-29.69-4.46-1.15-9.56-1.84-12.58-5.27-21.82-19.75-21.32-19.83 5.77-11.6 16.39 8.84 6.24-24.4 9.21-34.63-35.27.66-36.81-1-29.01 34.48zm90.47 181.19c12.06-10.84-21.74 5.73-32.02-16.13-3.19 16.53 15.71 31.06 29.06 18.23 1.21-.17 2.11-1.26 2.96-2.1zm-54.6-243.66c-5.32 7.6 16.47-1.94 14.43-8.42 1.81-4.63 1.88-12.72-2.97-16.17-.46 4.22-1.55 8-4.43 11-6.5 1.13-4.02 9.15-7.02 13.6zm-38.01 1.26c-1.35-5.98-8.5 4.9-14.1 2.57-9.25 10.69 8 24.7 18.81 19.48 27.27-15.52 5.98-9.1-4.71-22.05zm145.51 229.04c4.61-2.39-25.46-2.46-31.09-5.64.96 18.55 21.07 14.65 31.09 5.64zm61.44-217.92c-46.42-1.26-106.54-.21-150.83-1.71-6.3 1.51-7.94 11.56-15.09 14-2.33 5.68-.51 13.21-1.29 19.5 1.95 15.32-5.62 33.9 2.65 47.36 23.61 11.46 54.3 2.27 80.33 5.58 19.03-4.32 99.45 9.21 96.49-16.78l.07-58.64c-.19-5.49-6.84-9.16-12.33-9.31zm-88.43 128.83c15.56 23.69 51.48-3.18 31.84-24.24-14.95-19.27-51.52 6.66-31.84 24.24zm-144.47-197.29c-1.04 10.36 4.38-1.21 6.97-4.26-2.92-4.14-7.68-.08-6.97 4.26zm44.76 37.89c-35.13 8.24-5.65 36.01 13.83 16.47 4.66-5.53 4.56-11.45-3.29-12.72-4.85-2.53-7.02-12.69-10.54-3.75zm-39.24-3.62c-16.18 11.02 6.81 30.42 17.07 15.09 6.94-6.91-2.01-8.2-6.83-11.64-3.29-7.7-3.83-12.49-10.23-3.44zm28.89-13.34c-.44-3.47 1.8-9.2-.6-11.61-4.69 1.66-11.14 4.17-15.34 7.05-5.7 15.59 8.02 28.68 21.6 17.05-4.28-2.95-3.63-8.3-5.66-12.49zm-32.19 38.55c-15.13 27.75 22.66 30.21 8.51 19.8-5.09-4.53-7.49-11.65-4.82-18.46.46-1.94-3.94-4.05-3.69-1.33zm-13.9-43.97c-11.45 14.02 6.92 25.44 16.95 12.18 1.19-3.54 4.19-3.94 7.78-3.96 4.54-9.13-6.72-4.06-11.18-8.25-9.22-11.08-5.42-15.29-13.55.04zm52.79-5.09c.88 6.23-2.06 14.25 1.83 19.43 1.93-3.53 7.43-11.06 9.64-3.37-1.1 13.53 23.7 16.47 16 .26.31-7.2 8.03-1.47 10.75 1.14-.29-3.15-2.24-5.24-4.17-7.25-5.02-4.71-10.75-9.74-16.88-12.62-1.55.08-2.96 3.6-4.91 2.37-1.68-6.32 8.05-12.77 10.5-18.95.29-6.71-11.72 5.6-14.28 7.99-4.56 3.4-8.58-4.82-13.14-5.92-6.47-3.04-29.16-11.05-29.43-4.34 3.71 4.85 12.04 4.84 4.79 11.58-22.76 25.98 24.35-3.29 29.3 9.68zm138.34 153.23c42.07 34.68-34.13 79.31-48.13 28.73-1.7-11.07.88-20.83 10.62-27.7-11.81-7.57-48.91-1.08-69.51-4.89 5.01 3.3 15.07 20.6 19.45 15.06.79-2.65-1.36-12.16 2.82-9.81 9.12 2.59 5.39 11.5 5.83 18.84 1.04 10.15-4.29 21.2-2.34 30.67 15.86 11.82 36.06 14.26 55.14 16.66 17.72.86 39.22 7.94 55.37.13 3.81-9.31 20.1-89.92 19.63-49.85 2.91-1.05 7-1.25 3.42-3.85 1.28-29.16 18.58 11.2 13.53 22.15 13.06 2.39 24.22 7.63 31.8 18.84 10.28-26.58-8.42-61.61-22.41-69.31-13.2 26.89-51.16 10.07-75.22 14.33zm-110.52-99.14c-7.48.59-11.39-4.01-18.31.68-2.13 3.15-1.6 7.89-6.21 10.31 9.54 4.06 24.18 1.51 24.52-10.98zm25.85 156.57c-4.94 11.68 10.15 15.43 18.01 20.55 5.66-11.79-12.21-12.22-18.01-20.55zm90.53 31.65c8.32-1.62 21.25.3 20.11-10.95-9.12 2.85-21.15-2.17-20.11 10.95zm-185.89-198.83c-1.76-2.01-2.62-4.4-3.46-6.87-.93-2.73.88-5.23.34-7.8-5.47-.89-5.44-.88-6.77 4.41-3.74 7.35 3.46 21.38 9.89 10.27zm236.48 134.69c-10.42 1.78-8.48 12.39-10.55 20.51 6.06-6.25 11.98-10.91 10.55-20.51zm-106.12 57.93c1.57-7.72 3.15-12.36-6.34-12.58-2.17 7.14-3.21 13.09 6.34 12.58z" fill="#2a0706"/><path d="m268.99 89.1c-3.9-22.2-15.58-46.67-41.21-45.4 13.61-7.35 32.58-13.46 36.96-32.04 1.47-4.97 5.11-19.17 5.74-6.61 4.02 17.49 22.04 29.61 37.57 36.67 2.54 1.3-1.22 2.7-2.6 2.78-24.47.41-32.42 24.54-36.46 44.6zm-1.04-38.82c.56-7.38 9.96-7.43 1.63-12.99-3.13-8.4-3.8 2.25-9.3 4.17 3.9 1.63 5.05 5.34 7.67 8.82z" fill="#fac015"/><path d="m344.39 303.99c3.85 7.19 5.94 17.07 14.9 19.38 12.51 5.93-10.07 14.29-9.72 23.6-2.21 3.6-1.59 9.95-4.74 12.33-2.54-10.65-5.63-24.63-18.25-28.86 9.44-5.85 16.42-15.19 17.81-26.45zm.58 19.91c-5.13 6.01-5.18 2.88.27 9.3 2.56-4.54 3.24-4.89-.27-9.3z" fill="#fac015"/><path d="m17.89 201.87c6.51 6.47 6.16 17.84 14.69 22.1 7.27 2.41-.25 6.06-3.11 9.35-6.99 3.21-4.68 15.97-11.66 16.45-4.28-7.15-9.46-15.34-17.12-20.9-4.01-4.61 10.58-7.02 11.53-13.1 2.36-4.22 3.12-9.71 5.67-13.91m-.14 18.31c-.46 3.56-2.22 6.3-5.24 8.43 4.36 6.17 3.9 5.52 8.6-.08-4.61-1.4-2.78-5.27-3.36-8.35z" fill="#fac015"/><path d="m76.36 158.06c-2.93-4.13-2.95-13.11-1.38-17.35 5.07 10.54 19.28 13.31 28.86 7.19 4.42-4.27 1.41-11.96 2.22-17.53-9.77-.26-18.41.18-27.55 2.43 6.23-4.31 13.21-2.64 20.47-3.06 15.53-3.17 4.49 26.23 6.99 37-9.04-2.58-17.82-5.45-26.95-7.66" fill="#fac015"/><path d="m151.19 53.88c-2.53-6.28-15.79-26.34-10.97-30.45 4.14-1.55 8.21-5.32 9.5 1.1 2.85 11.93 18.15 23.4 1.47 29.35z" fill="#fac015"/><path d="m69.23 333.32c-7.52 6.64-21.42 35.6-27.3 17.13 7.9-6.82 17.19-32.46 27.3-17.13z" fill="#fac015"/><path d="m322.5 364.11c-8.54 16-18.29-6.38-26.56-12.51-1.45-2.3 5.7-9.91 8.12-7.56 5.88 6.85 13.2 13.25 18.44 20.07z" fill="#fac015"/><path d="m182.03 16.12c.07 9.33 7.15 38.16-9.6 27.99 1.85-10.71-7.75-32.02 9.6-27.99z" fill="#fac015"/><path d="m328.78 111.75c9.25 7.25 10.55 8.57 1.93 17.29-.48.77-1.43 1.69-2.63.62-11.25-8.39-10.19-10.01.7-17.91z" fill="#fac015"/><path d="m352.05 188.91c-3.8-.57-2.78-6.38-5.01-8.92.28-3.83 8.84-4.25 12.08-6.53 3.95-.39 3.17 6.6 5.5 8.97-.42 4.03-9.42 3.84-12.56 6.48z" fill="#fac015"/><path d="m22.69 320.24c-9.09-10.37-6.33-11.79 4.61-17.62 3.5-.61 3.56 5.68 5.67 7.7 1.17 4.3-7.81 6.29-10.28 9.92z" fill="#fac015"/><path d="m178.44 90.2c-2.11 0-6.07-12.11-3.47-12.56 3.14-.22 8.17-4.99 10.43-2.11 2.53 11.51 6.04 11.68-6.96 14.67z" fill="#fac015"/><path d="m94.19 358.64c-10.23-2.21-9.83-4.61-6.65-13.9 1.82-3.49 7.37 1.54 10.43 1.9 2.6 1.19-1.45 12.23-3.79 12z" fill="#fac015"/><path d="m350.64 234.34c-2.99-12.86-.32-12.32 11.65-12.65 3.93 10.98-1.46 12.88-11.65 12.65z" fill="#fac015"/><path d="m52.07 185.42c11.92-1.33 13.67-.9 12.22 11.6-13.07 1.64-12.07 1.15-12.22-11.6z" fill="#fac015"/><path d="m204.24 70.02c-1.18-10.74.25-14.21 11.78-11.8 1.01 10.62-.35 14.83-11.78 11.8z" fill="#fac015"/><path d="m262.03 372.42c-.49-3.88-6.7-10.49-1.84-12.47 3.05.29 7.57-5.38 9.16-1.45 4.51 10.35 3.18 10.97-7.32 13.92z" fill="#fac015"/><path d="m229.07 209.03c24.08-4.28 62 12.57 75.22-14.33 13.99 7.7 32.69 42.73 22.41 69.3-7.58-11.21-18.74-16.45-31.8-18.84 5.01-10.97-12.22-51.31-13.54-22.15 3.49 2.62-.4 2.79-3.42 3.86.49-39.98-15.84 40.38-19.63 49.84-16.15 7.82-37.64.72-55.37-.13-19.08-2.4-39.28-4.84-55.14-16.66-1.95-9.48 3.39-20.53 2.34-30.67-.41-7.34 3.26-16.26-5.83-18.84-4.36-2.39-1.84 7.21-2.83 9.81-4.65 5.43-14.17-11.62-19.45-15.05 20.52 3.79 57.74-2.7 69.52 4.87-9.74 6.88-12.32 16.64-10.62 27.71 14.03 50.6 90.19 5.93 48.13-28.73z" fill="#9556e2"/><path d="m112.34 207.42c7.16 7.49 17.53 14.34 25.54 25.57s-13.77 55.83-8.36 83.64c-8.93.98-24.62-4.06-20.46-14.94.32-1.42 2.94-4.68 1.03-5.45-21.05 19.07-46.43 10.8-59.98-12.47-20.49-30.76 8.61-.15 28.6-24.53 15.85-14.03 21.24-35.22 33.63-51.82z" fill="#fc0290"/><path d="m141.61 283.05c28.69 20.12 66.25 23.36 100.33 21.92 1.93 10.78-18.38 18.22-29.65 16.05-8.37 1.77-26.84-8.49-30.4-.01-30.51 39.01-49.04-6.66-40.29-37.96z" fill="#3d57f8"/><path d="m198.48 198.43c-33.63-1.23-79.89 7.71-83.02-7.9-1.26-6.3-5.39-70.81 6.6-70.64 12.05.18 1.18 24.05.01 36.06l.02.66c1.64 10.57-6.32 29.54 7.35 33.05l.56.06 164.65-5.2c1.46.02-.24 8.29-.24 9.75 0 2.33-1.32 5.13-7.93 5.25l-88-1.11z" fill="#fac015"/><path d="m319.63 271.06c.06.35.26.56.51.82 2.33 7.76-2.2 14.21-4.31 21.25-4.48 4.03-12.71 10.55-19.96 9.69-7.95-2.54-19.76-7.85-21.47-16.86 1.52-14.15 11.67-31.88 27.64-25.31 2.57 1.51 4.59.18 7.07 1.13 3.95 1.64 5.89 4.86 9.26 7.57" fill="#fae005"/><path d="m313.94 265.14c-8.56-4.41-4.57-1.87-11.95-2.99-15.97-6.56-26.07 9.65-27.58 23.8 4.66 12.95 27.61 19.77 38.56 9.65 6.3-2.41-12.15 18.82-17.23 18.94-10.75-3.57-32.33-10.08-31.96-23.84 6.94-21.66 28.24-47.39 50.16-25.57z" fill="#fac015"/><path d="m115.69 58.79c1.32 2.44 6.23 3.97 5.51 7.23-1.58 2.44-3.81-.9-5.7.29 2.26 2.95 1.43 7.08 1.71 10.82-.29 4.27-4.5.94-6.52 3.47-2.61.43-.54-5.06-4.83-4.73-3.46-2.72-2.31-9.37-8.76-8.72 2.22-3.05-3.11.56-4.36-.91-1.74 5.83-1.62-13.19-.52-12.18-9.59-9.34-21.7 2.72-32.89-.79-3.81-.18.71-2.9 1.13-4.22 2.04-1.6 3.47-6.51 4.55-1.87-.62-4.43 6.32-7.05.6-8.75.81-.88 2.09.1 2.9-.76-.48-2.06-4.84-.56-3.76-4.06 10.75 1.13 3.48 1.69 7.41 3.99 2.02 1.02 4.11 1.55 6.23.37 1.15 2.38 6.27 4.53 7.72 3.51 1.44 2.73 3.12-.41 5 1.81 1.52 3.66 9.28 2.88 7.38 6.9 1.73.98 1.63-3.82 4.09-3.56 3.15 2.32-4.41 5.26-.93 8.97 1.16 2.34 3.31.79 5.07 1.59 1.09-6.28 6.01 2.73 8.98 1.62zm-8.02.26c2.01.27 1.91-1.17 2.81-2.48-1.49.69-2.07 1.43-2.81 2.48zm-8.15-6.46c-.21.3-.16.42.2.5.21-.3.16-.42-.2-.5z" fill="#03e615"/><path d="m78.51 132.78c4.06 1.16 7.08-3.79 10.89-2.37 4.62 2.78 18.56-4.82 16.56 3.7 3.98 15.03-10.21 20.23-22.57 15.11-6.77-3.43-16.3-15.55-4.87-16.44z" fill="#fae005"/><path d="m76.03 103.15c10.87 12.61 31.13 6.25 4.24 21.65-18.01 5.91-32.64-19.23-8.51-22.45 1.62-.8 3.04-.98 4.27.8z" fill="#bc1142"/><path d="m104.91 87.03c21.73 8.05-15.97 30.43-26.06 12.73-2.35-1.77.6-12.13 3.17-12.32 6.15.86 9.36-6.14 12.7.39.46 2.61 6.56 2.91 7.97.79.26-1.01 1.11-1.58 2.22-1.59z" fill="#bc1142"/><path d="m218.43 285.16c5.81 1.32 11.47.82 8.61 6.7-1.38 9.65-11.25 6.65-19.89 5.14-3.45-.6-16.39-2.21-18.01-4.37s.71-8.01 2.9-9.92 26.39 2.45 26.39 2.45z" fill="#fae005"/><path d="m115.69 58.79c-2.91 1.13-7.93-7.91-8.98-1.62-12.94-1.02-.07-9.48-4.14-10.56-2.45-.26-2.37 4.54-4.09 3.56 1.91-4.01-5.87-3.25-7.38-6.9-3.78-2.21-9.09-.08-12.72-5.31-2.12 1.18-4.21.65-6.23-.37-2.2-1.11-2.2-1.28.04-2.84-2.76.16-4.93-1.19-7.46-1.15-1.08 3.49 3.28 1.99 3.76 4.06-1.87.78-4.68.34-.77 1.6.55 2.95-3.15 4.25-2.71 7.91-1.05-4.63-2.55.27-4.56 1.87-6.16 5.92 1.21 3.85 5.66 4.71 5.2 1.11 9.5-3.77 14.68-3.02 2.43-.66 14.23.69 9.94 4.26-7.89-6.92-21.03.92-30.51 2.38-17.53-.2 13.72-14.78.56-19.27-1.72-1.93-5.04-2.98-5.28-5.82 49.64.91 24.92 25.51 58.13 2.24 2.33 3.94-19.13 22.69-8.36 20.79 3.15-4.39 7.77.96 10.41 3.48z" fill="#10d727"/><path d="m164.79 347.73c-22.26 18.31-34.75-21.7-26.36-15.78 15.13 18.5 30.25 3.01 30.17 12.77-.93 1.11-2.86.87-3.39 2.55-.12.11-.25.3-.41.47z" fill="#a34a08"/><path d="m70.1 96.58c-10.03 11.3-28.04-4.22-17.14-15.46 3.23 3.93 7.44 7.84 12.4 1.98 3.95 4.36 13.58 4.79 6.83 11.65-1.51-.17-2.95-.08-2.1 1.83z" fill="#bc1142"/><path d="m51.48 60.85c3.94 3.27 19.48 1.08 9.2 8.46-3.36-.94-4.65 1.87-5.81 3.75-4.55 7.18-21.39 9.25-20.38-2.47 5.28-26.72 5.83 15.82 16.99-9.74z" fill="#bc1142"/><path d="m85.58 71.89c.65 4 3.99 7.64-1.19 9.54-4.64 2.82-7.12-.03-12.01-.17-7.28-3.43-5.27-10.48-3.61-16.55-.77-2.62 2.26-4.1 4.59-4.69 2.04.03.96-2.69 3.37-2.54.6.59 2.16-1.37 2.16.81-6.79 3.48-6.41 13.85 1.87 12.18 1.97-.69 2.51 2.35 4.82 1.43zm-7.27 8.98c.95-.14 1.93.78 3.42-.41-1.52-.03-2.48-.39-3.42.41z" fill="#bc1142"/><path d="m118.55 109.89c-.34 12.49-14.97 15.04-24.52 10.98 4.61-2.42 4.06-7.15 6.2-10.31 6.92-4.68 10.83-.08 18.31-.67z" fill="#bc1142"/><path d="m204.1 339.52c-2.29.84-2.99-.51-4.38-1.01-2.19.08-4.68-1.04-6.22-2.63-1.05-5.11-5-10.34 4.01-8.17 7.66 2.42 16.7 1.52 23.7 3.94-1.02.13-1.95-.12-1.76 1.47-2.73 2.33-6.82.92-8.56 4.4-2.22.37-5.45-.54-6.79 2.01z" fill="#fae005"/><path d="m230.96 236.56c-1.26 17.13-35.06 21.48-34.92 4.23 8.97 8.19 26.1 9.26 30.35-4.55 1.47.82 3.01.79 4.57.32z" fill="#fac015"/><path d="m120.37 87.93c4.88.62 4.24-11.1 6.61-7.96 1.35 5.24 1.29 10.95.17 15.63-1.12 4.42-13.2 12.84-13.57 5.87 3.57-4.58.06-11.81 6.79-13.54z" fill="#bc1142"/><path d="m90.73 55.79c2.58 2.43.03 8.37.95 12.11 1.14-.32.5-1.25 1.06-1.67 1.73 1.4 3.39-1.15 5.18-.09-1.7 1.93 5.97 1.16 5.64 5.98.93 1.19.05 3.23 2.31 3.74 7.36 2-1.16 6.34 8.95 3.64 4.49-.27 2.28-10.81.69-13.19 1.89-1.19 4.13 2.16 5.7-.29.58-1-1.08-3.72-2.33-4.26-6.85-6.08 10.99 5.74 10.07 11.48-22.4-15.18 0 10.7-15.22 10.09-10.3 1.01-9.46-9.82-13.9-14.61-4.43-1.15-4.83 4.38-7.27 6.49-3.9-5.17-.95-13.2-1.83-19.43zm32.98 11.06c-.08-.97-.62-.89-1.54-.81.63.48.88.94 1.54.81z" fill="#10d727"/><path d="m191.56 221.9c7.73-11.43 24.96-14.01 34.36-3.45 2.57 1.98 2.23 4.45-.63 5.65-20.05-23.59-30.45 10.09-33.73-2.2z" fill="#fac015"/><path d="m144.4 266.46c5.81 8.33 23.67 8.75 18.01 20.55-7.86-5.11-22.96-8.87-18.01-20.55z" fill="#fac015"/><path d="m50.18 124.32c-2.29-3.62-2.21-25.14 5.35-18.14-2.39 6.21-.77 11.7 3.04 16.8.06 1 .4 1.53 1.41 1.3.75 1.73 1.25 2.85 3.37 2.54.65.33 1.13 1.12.6 1.47-3.93 5.53-11.05-.54-13.76-3.98z" fill="#bc1142"/><path d="m234.93 298.11c-1.03-13.13 10.98-8.1 20.11-10.95 1.14 11.25-11.79 9.34-20.11 10.95z" fill="#fac015"/><path d="m49.03 99.29c-6.43 11.11-13.63-2.92-9.89-10.27 1.34-5.29 1.31-5.3 6.77-4.41.54 2.58-1.27 5.07-.34 7.8.84 2.48 1.7 4.86 3.46 6.87z" fill="#bc1142"/><path d="m285.51 233.98c1.43 9.6-4.5 14.26-10.55 20.51 2.08-8.12.13-18.73 10.55-20.51z" fill="#fc0290"/><path d="m179.39 291.91c-9.56.51-8.51-5.44-6.34-12.58 9.49.23 7.91 4.87 6.34 12.58z" fill="#fac015"/><path d="m51.48 60.85c-3.06 1.75-1.99 8.17-6.07 8.51-4.9.35-4.75-7.49-7.47-8.48 8.14-15.32 4.32-11.12 13.55-.04zm-6.36-2.38c-7.3.57-1.93 15.74 2.67 7.5 1.57-3.16-3.44-4.16-2.67-7.5z" fill="#bc1142"/><path d="m74.76 62.6c5.78-8.3 11.5-5.89 9.26 3.71-2.69 6.65-11.48 2.76-9.26-3.71z" fill="#fafcf9"/><path d="m65.36 83.1c-9.64 9.31-14.28-6.02-3.16-10.01-.47 4.19 1.94 6.88 3.16 10.01z" fill="#fafcf9"/><path d="m100.73 89.6c-1.6.35-3.5.74-4.9-.4-.29-.6-.69-1-1.13-1.38-3.5-13.81 12.31-5.74 6.03 1.77z" fill="#fafcf9"/><path d="m49.61 45.39c-.98-3.16 2.07-5 4.13-6.71 5.22 1.93-1.2 11-4.13 6.71z" fill="#fafcf9"/><path d="m189.04 231.78c4.3-1.35 6.48 3.58 5.54 6.32-4.34-.34-6.56-1.05-5.54-6.32z" fill="#fac015"/><path d="m128 93.05c-.53-4.49 1.33-11.32-2.47-14.2.02 3.4-1.35 8.09-4.93 9.02 2.88-3 3.98-6.78 4.43-11 4.86 3.44 4.78 11.54 2.97 16.17z" fill="#bc1142"/><path d="m74.76 62.6c-2.11 5.18 5.05 10.41 8.31 5.07 1.86-3.44 1.96 2.76 2.5 4.21-2.31.92-2.85-2.12-4.82-1.43-3.22 2.36-9.78-4.93-5.99-7.86z" fill="#bc1142"/><path d="m74.69 58.47c.03.92-.02 1.63-1.33 1.54-5.37.78-5.15 6.06-5.51 10.44-2.43 1.12 1-6.68.24-8.7 1.21-1.89 4.63-2.07 6.61-3.28z" fill="#bc1142"/><path d="m84.6 57.48c-2.02-.57-3.88-.01-5.71.8 0-2.18-1.56-.22-2.17-.81 2.32-1.13 8.54-5.25 7.88.01z" fill="#bc1142"/><path d="m190.06 237.92c4.83-1.27 4.23.77 4.02 4.77-2.44-.66-3.18-2.76-4.02-4.77z" fill="#a34a08"/><path d="m81.45 82.86c3.68-2.99 7.36-1.25 5.12-7.7 5.29 3.94-.06 7.44-5.12 7.7z" fill="#bc1142"/><path d="m193.99 327.33c-2.78.09-3.34 1.05-2.01 3.54 4.62 11.68-7.56-10.11 2.01-3.54z" fill="#fac015"/><path d="m49.61 45.39c1.69 1.04 3.83 3.76.63 4.68-.69-1.49-1.56-2.93-.63-4.68z" fill="#bc1142"/><path d="m74.68 89.64c-.47-2.23-2.79-1.41-4.05-2.41-5.66-3.29 5.98-.3 4.05 2.41z" fill="#bc1142"/><path d="m204.1 339.52c.82-2.18 2.99-1.32 4.49-1.95 4.6-.37-2.6 2.05-4.49 1.95z" fill="#fac015"/><path d="m94.37 83.28c-.18 2 .51 6.93-1.07 2.6.06-1.16-.58-1.39-1.54-1.26.46-1.23 1.55-1.25 2.61-1.34z" fill="#bc1142"/><path d="m221.21 331.64c-1.59-2.19-5 .47-6.96-1.62 1.89.6 11.99-.57 6.96 1.62z" fill="#fac015"/><path d="m100.73 89.6c2.2-1.37 1.5-6.09 4.18-2.57-2.37-.28-1.92 3.3-4.18 2.57z" fill="#bc1142"/><path d="m55.13 79.66c.76 7.95 1.14 4.02-2.17 1.46.52-.78 1.49-.91 2.17-1.46z" fill="#bc1142"/><path d="m210.89 337.51c1.11-1.96 2.74-2.9 5.03-2.54-1.39 1.4-3.24 1.92-5.03 2.54z" fill="#fac015"/><path d="m72.38 81.26c1.89-.63 3.43.88 5.23.87.18 1.98-4.13-.25-5.23-.87z" fill="#bc1142"/><path d="m75.57 102.72c-1.12-1.71-2.49-.83-3.81-.37 1.4-2.41 3.3-2.91 3.81.37z" fill="#bc1142"/><path d="m195.5 337.57c1.71-.57 2.45 1.77 4.22.93 3.36 1.49-3.41 1.13-4.22-.93z" fill="#fac015"/><path d="m113.58 101.47c.07 1.3.31 3.66-1.56 2.07.24-.85.6-1.66 1.56-2.07z" fill="#bc1142"/><path d="m55.18 104.89c-1.43-.11-4.75.59-2.61-1.59.74.69 1.99.56 2.61 1.59z" fill="#bc1142"/><path d="m70.1 96.58c-.87-1.92.6-1.99 2.1-1.83-.37.98-1.04 1.63-2.1 1.83z" fill="#bc1142"/><path d="m63.34 126.83c-1.57.06-2.91-.2-3-2.18 1 .73 2 1.45 3 2.18z" fill="#bc1142"/><path d="m50.18 124.32c1.16.38 1.77 1.15 1.68 2.4-1.02-.48-1.75-1.16-1.68-2.4z" fill="#bc1142"/><path d="m127.15 95.6c.27-.85-.74-2.14.86-2.54.03.96.09 1.92-.86 2.54z" fill="#bc1142"/><path d="m318.38 269.36c.8.29.85 1.13 1.25 1.7" fill="#fac015"/><path d="m49.27 121.79c1.24.38 1.12 1.24.77 2.19-.79-.54-.79-1.36-.77-2.19z" fill="#bc1142"/><path d="m219.45 333.11c-.11-1.23.43-1.68 1.62-1.34-.29.75-.96 1.03-1.62 1.34z" fill="#fac015"/><path d="m114.47 99.87c.01.71-.12 1.33-.89 1.6.06-.67 0-1.4.89-1.6z" fill="#bc1142"/><path d="m59.98 124.29c-.68.06-1.36.11-1.32-.89.57.11 1.02.39 1.32.89z" fill="#bc1142"/><path d="m120.37 87.93c-.03.66-.41.89-1.03.8.15-.51.45-.84 1.03-.8z" fill="#bc1142"/><path d="m193.08 335.02c.4.15.45.48.43.85-.44-.13-.46-.48-.43-.85z" fill="#fac015"/><path d="m168.17 345.13c.14-.14.28-.28.43-.43-.14.14-.28.28-.43.43z" fill="#fac015"/><path d="m320.12 271.84c-.14-.15-.29-.31-.43-.46.14.15.29.31.43.46z" fill="#fac015"/><path d="m76.03 103.15c-.16-.14-.31-.28-.47-.41.16.14.31.28.47.41z" fill="#bc1142"/><path d="m295.69 183.31c.05 5.12-4.11 9.28-9.23 9.22l-115.11-1.21s-52.5 7.11-51.1-11.87c1.29-17.59 1.08-58.37 4.43-59.25 14.7-.92 140.33 1.12 165.88 1.55 2.52.04 4.54 2.08 4.57 4.6m-162.41 45.39c-2.31.03-1.08 1.78-1.3 2.78-.58 2.25 8.54 2.13 8.39.2.74-4.32-4.42-3.06-7.09-2.98z" fill="#fae005"/><path d="m201.58 156.86c10.22.93 20.47-.1 30.7.83 19.72 4.35 13.64 34.51-6.17 35.32-23.74.97-67.59-2.46-44.79-33.97 4.96-3.96 13.35-1.59 20.27-2.18zm7.86 12.21c-12.26-2.38-30.34-.39-11.94 13.24 20.22 12.74 51.96-18.72 11.94-13.24z" fill="#2a0706"/><path d="m107.67 59.05c.73-1.05 1.32-1.79 2.81-2.48-.9 1.3-.8 2.75-2.81 2.48z" fill="#10d727"/><path d="m99.53 52.59c.35.08.4.2.2.5-.35-.08-.4-.2-.2-.5z" fill="#10d727"/><path d="m95.04 88.32c.4.17.65.47.78.88-.59 0-.86-.29-.78-.88z" fill="#bc1142"/><path d="m94.7 87.83c.29.05.36.25.35.51-.25-.07-.39-.23-.35-.51z" fill="#bc1142"/><path d="m95.85 89.23c.18.12.35.25.53.37-.18-.12-.35-.25-.53-.37z" fill="#bc1142"/><path d="m78.31 80.86c.94-.8 1.9-.44 3.42-.41-1.49 1.19-2.47.27-3.42.41z" fill="#bc1142"/><path d="m196.05 240.79c-10.65-19.22 17.24-34.95 29.25-16.68 8.71 19.49-16.36 30.07-29.25 16.68zm14.4-18.39c-11.27-.34-13.05 18.19-.46 18.98 13.33.16 12.86-18.76.46-18.98z" fill="#2a0706"/><path d="m123.71 66.85c-.67.14-.91-.33-1.54-.81.93-.08 1.47-.16 1.54.81z" fill="#03e615"/><path d="m45.12 58.47c-.77 3.34 4.24 4.35 2.67 7.5-4.6 8.25-9.97-6.94-2.67-7.5z" fill="#fafcf9"/><path d="m168.27 342.45c.34.08.84-.18.95.44-.41.55-1.51.05-.95-.44z" fill="#a34a08"/><path d="m154.16 157.29c-21.48 20.94-20.06-44.07.17-21.96 2.21 6.86 1.43 14.95-.17 21.96z" fill="#2a0706"/><path d="m278.09 134.96c2.63 7.45 3.8 20.5-2.95 26.14-19.98 8.03-14.17-43.19 2.95-26.14z" fill="#2a0706"/><path d="m139.79 174.73c-6.6 2.69-10.46-3.99-4.26-3 1.16 1.54 4.09-.14 4.26 3z" fill="#fafcf9"/><path d="m182.03 158.17c-.2.32-.12.88-.72.87.24-.29.48-.58.72-.87z" fill="#fac015"/><path d="m184.69 156.89c.13.38-.19.3-.36.37.13-.12.24-.25.36-.37z" fill="#fafcf9"/><path d="m209.45 169.08c40.03-5.48 8.26 25.99-11.94 13.24-18.38-13.64-.32-15.62 11.94-13.24z" fill="#fb7871"/><path d="m210.44 222.39c12.4.22 12.88 19.14-.46 18.98-12.59-.79-10.81-19.32.46-18.98z" fill="#fac015"/><path d="m281.92 178.4c-2.29 3.54-17.49 1.65-15.57-3.87.84-4.12 8.32-2.03 11.06-2.37 3.9-.23 5.9 2.47 4.52 6.23z" fill="#fc0290"/></symbol><filter id="b" filterUnits="userSpaceOnUse"><feOffset dx="7" dy="7"/><feGaussianBlur result="blur" stdDeviation="0"/><feFlood flood-opacity=".75"/><feComposite in2="blur" operator="in"/><feComposite in="SourceGraphic"/></filter><filter id="c" filterUnits="userSpaceOnUse"><feOffset dx="7" dy="7"/><feGaussianBlur result="blur-2" stdDeviation="0"/><feFlood flood-opacity=".75"/><feComposite in2="blur-2" operator="in"/><feComposite in="SourceGraphic"/></filter><use height="372.42" transform="matrix(1.16 0 0 1.16 336 37)" width="364.62" xlink:href="#a"/><g fill="#fae005" stroke="#fac015" stroke-miterlimit="10" stroke-width="5"><g filter="url(#b)"><path d="m75.33 62.57c24.17-2.23 44.61-1.84 61.33 1.16 16.71 3 30.34 7.93 40.89 14.79 10.54 6.86 18.17 15.3 22.89 25.33 4.71 10.03 7.07 20.79 7.07 32.27 0 12.86-2.49 23.91-7.46 33.17s-11.57 16.84-19.8 22.76-17.57 10.25-28.03 12.99-21.17 4.11-32.14 4.11h-.77c-1.2 7.37-2.49 14.66-3.86 21.86s-2.92 14.4-4.63 21.6l-29.83-3.34c1.37-16.11 2.31-31.89 2.83-47.31.51-15.43.51-30.81 0-46.16-.51-15.34-1.5-30.73-2.96-46.16s-3.3-31.11-5.53-47.06zm51.43 38.31c.17 15.09-.13 29.7-.9 43.84s-1.93 28.16-3.47 42.04c12.86-2.91 22.76-8.36 29.7-16.33s9.9-19.24 8.87-33.81c-.86-9.77-4.46-17.57-10.8-23.4s-14.14-9.94-23.4-12.34z"/><path d="m240.16 251.57c0-9.77-.04-19.11-.13-28.03-.09-8.91-.35-18.13-.77-27.64-.43-9.51-1.03-19.76-1.8-30.73s-1.76-23.4-2.96-37.29l47.83-1.8c.34 14.23.43 27.13.26 38.7s-.51 22.37-1.03 32.4-1.25 19.59-2.19 28.67c-.94 9.09-2.02 18.26-3.21 27.51l-36-1.8zm-4.89-144.51-.26-45.51 45.51 1.03-.26 44.74-45-.26z"/></g><g filter="url(#c)"><path d="m137.14 309c.21 14.64-.42 28.31-1.89 41.02s-3.85 25.06-7.14 37.03l-12.19-1.89c.63-5.04 1.14-9.96 1.52-14.76s.68-9.61.89-14.45c-3.43.35-6.79.58-10.09.68-3.29.11-6.62.12-9.98.05-1.05 10.23-2.73 20.31-5.04 30.26l-12.19-1.37c.56-6.58.95-13.03 1.16-19.33s.21-12.59 0-18.86-.61-12.55-1.21-18.86c-.6-6.3-1.35-12.71-2.26-19.22l20.59-.74c.28 5.46.44 10.77.47 15.92s-.05 10.21-.26 15.18c3.15.07 6.27.1 9.35.1s6.3-.07 9.67-.21c-.14-5.04-.37-10.1-.68-15.18s-.75-10.24-1.31-15.5l20.59.1z"/><path d="m202.8 363.74c-2.87.42-5.48.79-7.83 1.1-2.35.32-4.75.56-7.2.74s-5.15.3-8.09.37-6.41.1-10.4.1c.63 1.89 1.52 3.57 2.68 5.04s2.77 2.68 4.83 3.62c2.06.95 4.66 1.58 7.77 1.89 3.12.32 6.99.26 11.61-.16l1.37 7.77c-1.33.35-2.82.7-4.46 1.05-1.65.35-3.27.65-4.89.89-1.61.25-3.17.44-4.67.58-1.51.14-2.75.21-3.73.21-4.27 0-8.35-.47-12.24-1.42s-7.3-2.63-10.24-5.04c-2.94-2.42-5.29-5.69-7.04-9.82s-2.59-9.35-2.52-15.65c.07-5.18.91-9.73 2.52-13.66 1.61-3.92 3.69-7.18 6.25-9.77s5.39-4.53 8.51-5.83 6.21-1.94 9.3-1.94c4.55 0 8.67.67 12.34 2 3.68 1.33 6.78 3.56 9.3 6.67 2.52 3.12 4.39 7.23 5.62 12.34 1.22 5.11 1.63 11.42 1.21 18.91zm-26.68-29.1c-2.94.07-5.11 1.38-6.51 3.94s-2.17 6.81-2.31 12.76c1.12.07 3.22.09 6.3.05 3.08-.03 6.97-.12 11.66-.26 0-2.45-.23-4.69-.68-6.72-.46-2.03-1.09-3.78-1.89-5.25-.81-1.47-1.77-2.59-2.89-3.36s-2.35-1.16-3.68-1.16z"/><path d="m233.26 328.23c1.33-1.33 2.89-2.19 4.67-2.57 1.79-.38 3.27-.58 4.46-.58 2.24 0 4.69.4 7.35 1.21s5.25 2.12 7.77 3.94l-5.78 15.44c-.84-1.05-1.79-2.05-2.84-2.99-1.05-.95-2.14-1.77-3.26-2.47s-2.24-1.26-3.36-1.68-2.1-.63-2.94-.63-1.66.07-2.47.21-1.54.44-2.21.89c-.67.46-1.21 1.09-1.63 1.89-.42.81-.63 1.87-.63 3.2s-.05 3.12-.16 5.36c-.1 2.24-.25 4.71-.42 7.41-.18 2.7-.39 5.5-.63 8.41-.25 2.91-.49 5.72-.74 8.46-.25 2.73-.51 5.22-.79 7.46s-.53 4.06-.74 5.46l-13.87-.1c.84-21.08.74-42.16-.31-63.24l18.7.42-.21 4.52z"/><path d="m290.83 323.61c4.83 0 9.02.91 12.55 2.73 3.54 1.82 6.46 4.24 8.77 7.25s4.03 6.46 5.15 10.35 1.68 7.93 1.68 12.13-.56 8.23-1.68 12.08-2.84 7.25-5.15 10.19-5.24 5.29-8.77 7.04c-3.54 1.75-7.72 2.63-12.55 2.63s-8.95-.95-12.34-2.84c-3.4-1.89-6.18-4.36-8.35-7.41s-3.75-6.48-4.73-10.29c-.98-3.82-1.47-7.62-1.47-11.4s.46-7.81 1.37-11.66 2.42-7.32 4.52-10.4 4.87-5.58 8.3-7.51 7.67-2.89 12.71-2.89zm-9.14 35.19c0 1.61.16 3.24.47 4.88.32 1.65.84 3.15 1.58 4.52s1.68 2.49 2.84 3.36c1.16.88 2.57 1.31 4.25 1.31 2.52 0 4.67-1.16 6.46-3.47s2.68-5.85 2.68-10.61c0-5.67-.72-9.77-2.15-12.29-1.44-2.52-3.77-3.78-6.99-3.78s-5.46 1.46-6.93 4.36c-1.47 2.91-2.21 6.81-2.21 11.71z"/></g></g></svg>